<?xml version="1.0" encoding="utf-8"?>
<!-- Generator: Adobe Illustrator 22.0.1, SVG Export Plug-In . SVG Version: 6.00 Build 0)  -->
<svg version="1.1" id="Ebene_1" xmlns="http://www.w3.org/2000/svg" xmlns:xlink="http://www.w3.org/1999/xlink" x="0px" y="0px"
	 viewBox="0 0 1162.2 1162.2" style="enable-background:new 0 0 1162.2 1162.2;" xml:space="preserve">
<style type="text/css">
	.st0{fill:url(#SVGID_1_);}
	.st1{fill:url(#SVGID_2_);}
	.st2{fill:url(#SVGID_3_);}
	.st3{fill:#585764;}
	.st4{opacity:0.1;}
	.st5{fill:#030405;}
	.st6{opacity:0.5;}
	.st7{fill:url(#SVGID_4_);}
	.st8{fill:url(#SVGID_5_);}
	.st9{opacity:0.3;fill:#585764;enable-background:new    ;}
</style>
<g id="Ebene_9">
	
		<linearGradient id="SVGID_1_" gradientUnits="userSpaceOnUse" x1="1021.71" y1="1194.4403" x2="1021.71" y2="425.8396" gradientTransform="matrix(1 0 0 1 -290.16 -100.3403)">
		<stop  offset="0" style="stop-color:#828383;stop-opacity:0.25"/>
		<stop  offset="0.54" style="stop-color:#828383;stop-opacity:0.12"/>
		<stop  offset="1" style="stop-color:#828383;stop-opacity:0.1"/>
	</linearGradient>
	<path class="st0" d="M1115.4,709.8c0,212.4-181.9,384.3-375.5,384.3S347.7,921.8,347.7,709.8s198.4-384.3,392.2-384.3
		C933.4,325.1,1115.4,497.4,1115.4,709.8z"/>
</g>
<g id="Ebene_8">
	
		<linearGradient id="SVGID_2_" gradientUnits="userSpaceOnUse" x1="455.2065" y1="433.5355" x2="991.1935" y2="969.5224" gradientTransform="matrix(1 0 0 1 0 -0.929)">
		<stop  offset="0" style="stop-color:#63ACE0"/>
		<stop  offset="1" style="stop-color:#427BBE"/>
		<stop  offset="1" style="stop-color:#020203"/>
	</linearGradient>
	<circle class="st1" cx="723.2" cy="700.6" r="379"/>
</g>
<g id="Ebene_7">
	
		<linearGradient id="SVGID_3_" gradientUnits="userSpaceOnUse" x1="510.2194" y1="488.5484" x2="936.1806" y2="914.5095" gradientTransform="matrix(1 0 0 1 0 -0.929)">
		<stop  offset="0" style="stop-color:#AEB8B8"/>
		<stop  offset="1" style="stop-color:#D4DFDE"/>
	</linearGradient>
	<circle class="st2" cx="723.2" cy="700.6" r="301.2"/>
</g>
<g id="Ebene_4">
	<circle class="st3" cx="711" cy="714.4" r="10.6"/>
	
		<rect x="673.5" y="547.8" transform="matrix(0.9491 -0.3149 0.3149 0.9491 -164.6066 247.6577)" class="st3" width="21.3" height="170.9"/>
</g>
<g id="Ebene_3" class="st4">
	<g>
		<path class="st5" d="M445.5,736.9C445.2,570.6,580,435.5,746.4,435.2c95,0,184.4,44.4,241.4,120.6
			c-80.5-145.6-264-198.1-409.4-117.6c-144.8,79.9-197.8,261.3-119.5,406.7c7,12.9,15.1,25.3,24,36.9
			C458.4,837.3,445.5,787.5,445.5,736.9z"/>
	</g>
</g>
<g id="Ebene_2_1_">
	<g>
		<g class="st6">
			
				<linearGradient id="SVGID_4_" gradientUnits="userSpaceOnUse" x1="490.46" y1="698.1603" x2="490.46" y2="74.3603" gradientTransform="matrix(1 0 0 1 -131.66 -6.2603)">
				<stop  offset="0" style="stop-color:#828383;stop-opacity:0.25"/>
				<stop  offset="0.54" style="stop-color:#828383;stop-opacity:0.12"/>
				<stop  offset="1" style="stop-color:#828383;stop-opacity:0.1"/>
			</linearGradient>
			<circle class="st7" cx="358.8" cy="380" r="311.9"/>
		</g>
		
			<linearGradient id="SVGID_5_" gradientUnits="userSpaceOnUse" x1="572.8305" y1="504.4998" x2="144.7695" y2="257.3582" gradientTransform="matrix(1 0 0 1 0 -0.929)">
			<stop  offset="0" style="stop-color:#63ACE0"/>
			<stop  offset="0" style="stop-color:#FFD35E"/>
			<stop  offset="1" style="stop-color:#E58656"/>
			<stop  offset="1" style="stop-color:#427BBE"/>
			<stop  offset="1" style="stop-color:#020203"/>
		</linearGradient>
		<circle class="st8" cx="358.8" cy="380" r="247.1"/>
	</g>
</g>
<circle class="st3" cx="656.8" cy="548.9" r="19.1"/>
<path class="st9" d="M954.6,707.8c-4.7-0.2-7.3,0.5-10.3,4.9l-235.7-1.9l-1.5,11.7l233.6,14.5c2.1,4.4,5.6,7.4,10.1,7.5
	c7.4,0.3,14.8-9.7,15.5-19.2C967.5,715.9,962.2,708,954.6,707.8z"/>
</svg>
