<?xml version="1.0" standalone="no"?>
<!DOCTYPE svg PUBLIC "-//W3C//DTD SVG 20010904//EN"
 "http://www.w3.org/TR/2001/REC-SVG-20010904/DTD/svg10.dtd">
<svg version="1.0" xmlns="http://www.w3.org/2000/svg"
 width="500.000000pt" height="500.000000pt" viewBox="0 0 500.000000 500.000000"
 preserveAspectRatio="xMidYMid meet">
<metadata>
Created by potrace 1.14, written by Peter Selinger 2001-2017
</metadata>
<g transform="translate(0.000000,500.000000) scale(0.100000,-0.100000)"
fill="#000000" stroke="none">
<path d="M1275 4780 c3 -5 8 -10 11 -10 2 0 4 5 4 10 0 6 -5 10 -11 10 -5 0
-7 -4 -4 -10z"/>
<path d="M1422 4684 c10 -10 20 -16 22 -13 3 3 -5 11 -17 18 -21 13 -21 12 -5
-5z"/>
<path d="M956 4613 c-6 -14 -5 -15 5 -6 7 7 10 15 7 18 -3 3 -9 -2 -12 -12z"/>
<path d="M1417 4594 c-1 -1 -33 -4 -72 -8 -38 -3 -81 -8 -95 -11 -80 -15 -257
-72 -270 -85 -12 -13 -62 -30 -71 -24 -5 3 -8 0 -7 -8 2 -8 -6 -13 -19 -12
-12 0 -20 -3 -17 -7 2 -5 -6 -13 -18 -20 -13 -7 -25 -15 -28 -18 -3 -3 -24
-19 -47 -35 -23 -15 -58 -44 -78 -63 -20 -19 -40 -31 -47 -27 -6 4 -8 3 -5 -3
4 -6 -8 -26 -26 -45 -17 -19 -45 -52 -62 -73 -16 -21 -34 -43 -40 -49 -9 -11
-24 -34 -49 -81 -6 -11 -14 -22 -17 -25 -3 -3 -11 -20 -18 -38 -10 -24 -18
-31 -30 -27 -13 5 -13 4 -4 -6 10 -10 9 -18 -1 -38 -31 -60 -65 -159 -80 -236
-4 -16 -9 -41 -12 -55 -11 -45 -14 -314 -4 -355 5 -22 11 -56 13 -75 4 -36 6
-42 26 -100 7 -19 13 -39 15 -45 12 -54 63 -159 123 -253 18 -29 33 -56 33
-60 0 -4 9 -13 20 -20 11 -7 20 -17 20 -22 0 -5 13 -23 30 -38 16 -16 27 -32
23 -35 -3 -4 -1 -7 5 -7 16 0 78 -60 74 -72 -1 -5 2 -7 7 -4 5 4 14 -1 19 -10
5 -9 11 -14 13 -12 8 6 79 -54 73 -63 -3 -5 2 -6 11 -3 9 4 23 -2 35 -15 10
-12 20 -21 22 -20 6 5 68 -26 68 -34 0 -5 5 -5 10 -2 6 3 10 1 10 -5 0 -6 5
-8 10 -5 6 3 10 2 10 -2 0 -5 10 -10 22 -10 13 -1 27 -8 33 -16 5 -8 16 -12
24 -9 8 2 11 1 8 -4 -3 -5 11 -10 30 -11 20 -1 41 -10 50 -20 8 -10 12 -12 8
-5 -7 13 16 11 70 -6 11 -3 31 -7 45 -9 80 -8 117 -12 133 -12 15 -1 18 -8 15
-46 -3 -24 -7 -47 -9 -50 -3 -3 -4 -80 -3 -172 6 -325 61 -568 186 -818 49
-99 147 -252 209 -330 59 -72 233 -239 309 -296 82 -61 234 -157 236 -149 0 3
9 -2 19 -10 10 -8 44 -26 76 -41 33 -14 56 -29 52 -34 -5 -4 -3 -5 4 -1 6 3
37 -3 67 -14 31 -12 58 -21 61 -21 2 0 24 -7 47 -15 24 -9 54 -18 68 -21 14
-3 32 -6 40 -8 8 -2 19 -4 24 -4 4 -1 6 -8 3 -16 -4 -8 -1 -17 5 -21 6 -4 8
-3 5 2 -8 14 11 42 21 28 4 -5 25 -11 46 -11 29 -1 45 -7 58 -23 10 -12 18
-18 18 -13 0 5 -6 15 -12 22 -11 12 -9 12 7 6 25 -11 416 -15 430 -5 15 11 45
8 45 -4 0 -6 4 -5 9 3 5 8 20 15 33 17 34 4 75 12 99 19 11 4 27 1 35 -6 12
-10 13 -9 8 5 -5 12 0 16 18 16 14 0 28 3 32 7 3 4 15 8 26 10 37 5 45 8 51
16 4 5 18 10 33 10 14 1 26 5 26 10 0 4 6 7 13 7 8 0 28 7 45 16 18 8 37 12
44 8 7 -4 9 -3 5 2 -4 4 11 18 35 29 75 37 161 86 207 118 25 17 50 30 57 30
7 0 12 3 11 6 -1 3 3 8 8 10 6 3 22 16 36 30 15 14 45 41 68 59 22 19 60 54
83 78 23 24 48 42 55 40 7 -3 10 1 7 8 -7 17 22 40 38 30 10 -5 10 -4 1 6 -9
10 -4 20 23 49 19 20 48 57 65 83 17 27 36 45 42 41 5 -3 7 -1 4 5 -9 13 57
115 67 105 4 -4 4 0 1 9 -3 8 0 22 8 30 8 8 18 24 22 37 7 22 7 22 28 4 22
-18 22 -18 4 3 -18 21 -17 24 9 83 23 52 30 59 43 49 13 -10 14 -10 3 2 -14
16 -17 44 -3 36 5 -4 7 2 4 13 -3 11 2 21 12 25 9 3 13 10 10 16 -3 5 5 48 19
94 14 46 26 93 26 103 0 11 3 23 7 27 4 4 8 17 9 29 2 23 8 73 19 142 3 22 7
90 8 150 2 61 7 116 11 124 6 9 5 12 -1 8 -6 -4 -11 8 -11 26 -1 18 -4 43 -6
57 -2 14 -7 52 -11 85 -8 69 -10 84 -25 143 -6 24 -7 48 -4 54 4 7 2 8 -4 4
-11 -7 -16 12 -15 52 1 6 -3 12 -8 12 -5 0 -9 11 -9 24 0 14 -4 28 -10 31 -5
3 -10 14 -10 24 0 10 -7 31 -14 47 -8 15 -13 31 -10 36 3 4 1 8 -4 8 -9 0 -34
49 -34 67 0 4 -9 20 -19 35 -10 14 -19 29 -19 32 0 4 -18 36 -40 72 -22 36
-37 71 -33 77 3 5 1 7 -4 4 -6 -4 -23 12 -38 36 -51 76 -141 181 -228 263 -93
89 -199 174 -216 174 -6 0 -11 4 -11 8 0 23 -270 162 -411 210 -102 36 -290
79 -386 89 -122 13 -525 5 -516 -11 3 -5 -8 -7 -26 -4 -17 2 -31 1 -31 -2 0
-4 -27 -13 -60 -19 -33 -7 -76 -19 -95 -27 -34 -14 -35 -14 -37 8 -1 13 -2 30
-3 38 0 8 -4 20 -7 25 -7 12 -23 87 -20 98 1 4 -2 7 -7 7 -8 0 -25 56 -22 73
0 4 -4 7 -10 7 -5 0 -7 5 -4 10 3 6 2 10 -3 10 -9 0 -38 69 -34 83 1 5 -2 6
-8 2 -5 -3 -10 1 -10 9 0 9 -5 16 -11 16 -6 0 -8 7 -5 16 3 8 2 12 -3 9 -5 -3
-13 5 -17 17 -4 13 -10 25 -13 28 -4 3 -24 28 -46 55 -70 89 -237 245 -262
245 -7 0 -13 4 -13 9 0 14 -239 128 -298 142 -35 9 -48 16 -40 22 9 6 7 7 -5
3 -10 -3 -39 -1 -64 4 -61 14 -267 32 -276 24z"/>
<path d="M390 4321 c0 -6 4 -13 10 -16 6 -3 7 1 4 9 -7 18 -14 21 -14 7z"/>
<path d="M2316 4278 c3 -5 10 -6 15 -3 13 9 11 12 -6 12 -8 0 -12 -4 -9 -9z"/>
<path d="M355 4011 c-3 -5 -2 -12 3 -15 5 -3 9 1 9 9 0 17 -3 19 -12 6z"/>
<path d="M2596 3838 c3 -5 10 -6 15 -3 13 9 11 12 -6 12 -8 0 -12 -4 -9 -9z"/>
<path d="M193 3765 c0 -8 4 -12 9 -9 5 3 6 10 3 15 -9 13 -12 11 -12 -6z"/>
<path d="M2836 3762 c-3 -5 1 -9 9 -9 8 0 12 4 9 9 -3 4 -7 8 -9 8 -2 0 -6 -4
-9 -8z"/>
<path d="M110 3720 c0 -5 5 -10 10 -10 6 0 10 5 10 10 0 6 -4 10 -10 10 -5 0
-10 -4 -10 -10z"/>
<path d="M33 3485 c0 -8 4 -12 9 -9 5 3 6 10 3 15 -9 13 -12 11 -12 -6z"/>
<path d="M226 3038 c3 -5 10 -6 15 -3 13 9 11 12 -6 12 -8 0 -12 -4 -9 -9z"/>
<path d="M116 2947 c3 -10 9 -15 12 -12 3 3 0 11 -7 18 -10 9 -11 8 -5 -6z"/>
<path d="M315 2860 c3 -5 8 -10 11 -10 2 0 4 5 4 10 0 6 -5 10 -11 10 -5 0 -7
-4 -4 -10z"/>
<path d="M310 2820 c0 -5 5 -10 11 -10 5 0 7 5 4 10 -3 6 -8 10 -11 10 -2 0
-4 -4 -4 -10z"/>
<path d="M255 2800 c-3 -5 -1 -10 4 -10 6 0 11 5 11 10 0 6 -2 10 -4 10 -3 0
-8 -4 -11 -10z"/>
<path d="M333 2775 c0 -8 4 -12 9 -9 5 3 6 10 3 15 -9 13 -12 11 -12 -6z"/>
<path d="M299 2748 c-5 -18 -6 -38 -1 -34 7 8 12 36 6 36 -2 0 -4 -1 -5 -2z"/>
<path d="M355 2739 c-3 -4 2 -6 10 -5 21 3 28 13 10 13 -9 0 -18 -4 -20 -8z"/>
<path d="M455 2680 c3 -5 8 -10 11 -10 2 0 4 5 4 10 0 6 -5 10 -11 10 -5 0 -7
-4 -4 -10z"/>
<path d="M310 2677 c0 -2 6 -10 14 -16 11 -9 16 -9 22 1 4 7 4 10 -1 6 -4 -4
-14 -3 -22 3 -7 6 -13 9 -13 6z"/>
<path d="M255 2660 c3 -5 8 -10 11 -10 2 0 4 5 4 10 0 6 -5 10 -11 10 -5 0 -7
-4 -4 -10z"/>
<path d="M406 2658 c3 -5 10 -6 15 -3 13 9 11 12 -6 12 -8 0 -12 -4 -9 -9z"/>
<path d="M499 2668 c-5 -18 -6 -38 -1 -34 7 8 12 36 6 36 -2 0 -4 -1 -5 -2z"/>
<path d="M290 2620 c0 -5 5 -10 11 -10 5 0 7 5 4 10 -3 6 -8 10 -11 10 -2 0
-4 -4 -4 -10z"/>
<path d="M535 2619 c-3 -4 2 -6 10 -5 21 3 28 13 10 13 -9 0 -18 -4 -20 -8z"/>
<path d="M539 2568 c-5 -18 -6 -38 -1 -34 7 8 12 36 6 36 -2 0 -4 -1 -5 -2z"/>
<path d="M376 2542 c-3 -5 1 -9 9 -9 8 0 12 4 9 9 -3 4 -7 8 -9 8 -2 0 -6 -4
-9 -8z"/>
<path d="M456 2542 c-3 -5 1 -9 9 -9 8 0 12 4 9 9 -3 4 -7 8 -9 8 -2 0 -6 -4
-9 -8z"/>
<path d="M570 2540 c0 -5 5 -10 11 -10 5 0 7 5 4 10 -3 6 -8 10 -11 10 -2 0
-4 -4 -4 -10z"/>
<path d="M490 2500 c0 -5 5 -10 11 -10 5 0 7 5 4 10 -3 6 -8 10 -11 10 -2 0
-4 -4 -4 -10z"/>
<path d="M586 2478 c3 -5 10 -6 15 -3 13 9 11 12 -6 12 -8 0 -12 -4 -9 -9z"/>
<path d="M630 2480 c0 -5 5 -10 10 -10 6 0 10 5 10 10 0 6 -4 10 -10 10 -5 0
-10 -4 -10 -10z"/>
<path d="M549 2403 c-13 -16 -12 -17 4 -4 9 7 17 15 17 17 0 8 -8 3 -21 -13z"/>
<path d="M815 2340 c-3 -5 -1 -10 4 -10 6 0 11 5 11 10 0 6 -2 10 -4 10 -3 0
-8 -4 -11 -10z"/>
<path d="M710 2336 c0 -2 8 -10 18 -17 15 -13 16 -12 3 4 -13 16 -21 21 -21
13z"/>
<path d="M570 2325 c0 -5 5 -17 10 -25 5 -8 10 -10 10 -5 0 6 -5 17 -10 25 -5
8 -10 11 -10 5z"/>
<path d="M610 2299 c0 -5 5 -7 10 -4 6 3 10 8 10 11 0 2 -4 4 -10 4 -5 0 -10
-5 -10 -11z"/>
<path d="M975 2300 c3 -5 8 -10 11 -10 2 0 4 5 4 10 0 6 -5 10 -11 10 -5 0 -7
-4 -4 -10z"/>
<path d="M650 2259 c0 -5 5 -7 10 -4 6 3 10 8 10 11 0 2 -4 4 -10 4 -5 0 -10
-5 -10 -11z"/>
<path d="M1095 2260 c-3 -5 -1 -10 4 -10 6 0 11 5 11 10 0 6 -2 10 -4 10 -3 0
-8 -4 -11 -10z"/>
<path d="M780 2246 c0 -2 8 -10 18 -17 15 -13 16 -12 3 4 -13 16 -21 21 -21
13z"/>
<path d="M945 2240 c-3 -6 1 -7 9 -4 18 7 21 14 7 14 -6 0 -13 -4 -16 -10z"/>
<path d="M1080 2140 c-9 -6 -10 -10 -3 -10 6 0 15 5 18 10 8 12 4 12 -15 0z"/>
<path d="M915 2129 c-4 -6 -5 -12 -2 -15 2 -3 7 2 10 11 7 17 1 20 -8 4z"/>
<path d="M1233 2125 c0 -8 4 -12 9 -9 5 3 6 10 3 15 -9 13 -12 11 -12 -6z"/>
<path d="M1310 2106 c0 -2 7 -7 16 -10 8 -3 12 -2 9 4 -6 10 -25 14 -25 6z"/>
<path d="M1350 2106 c0 -2 7 -7 16 -10 8 -3 12 -2 9 4 -6 10 -25 14 -25 6z"/>
<path d="M1235 2090 c-4 -6 -10 -8 -15 -5 -5 3 -11 1 -14 -4 -8 -13 22 -7 36
7 7 7 9 12 6 12 -4 0 -10 -5 -13 -10z"/>
<path d="M1186 2038 c3 -5 10 -6 15 -3 13 9 11 12 -6 12 -8 0 -12 -4 -9 -9z"/>
<path d="M4693 969 c-2 -23 3 -25 10 -4 4 8 3 16 -1 19 -4 3 -9 -4 -9 -15z"/>
<path d="M4650 940 c0 -5 5 -10 11 -10 5 0 7 5 4 10 -3 6 -8 10 -11 10 -2 0
-4 -4 -4 -10z"/>
<path d="M4570 819 c0 -5 5 -7 10 -4 6 3 10 8 10 11 0 2 -4 4 -10 4 -5 0 -10
-5 -10 -11z"/>
<path d="M4533 749 c-2 -23 3 -25 10 -4 4 8 3 16 -1 19 -4 3 -9 -4 -9 -15z"/>
<path d="M4450 659 c0 -5 5 -7 10 -4 6 3 10 8 10 11 0 2 -4 4 -10 4 -5 0 -10
-5 -10 -11z"/>
<path d="M4250 480 c0 -5 5 -10 11 -10 5 0 7 5 4 10 -3 6 -8 10 -11 10 -2 0
-4 -4 -4 -10z"/>
<path d="M4200 460 c-9 -6 -10 -10 -3 -10 6 0 15 5 18 10 8 12 4 12 -15 0z"/>
<path d="M3635 209 c-4 -6 -5 -12 -2 -15 2 -3 7 2 10 11 7 17 1 20 -8 4z"/>
<path d="M2974 158 c-4 -7 -4 -10 1 -6 4 4 15 2 24 -5 14 -11 14 -10 2 6 -16
20 -18 21 -27 5z"/>
<path d="M3316 158 c3 -5 10 -6 15 -3 13 9 11 12 -6 12 -8 0 -12 -4 -9 -9z"/>
<path d="M3519 168 c-5 -18 -6 -38 -1 -34 7 8 12 36 6 36 -2 0 -4 -1 -5 -2z"/>
<path d="M3039 158 c-5 -18 -6 -38 -1 -34 7 8 12 36 6 36 -2 0 -4 -1 -5 -2z"/>
<path d="M3353 145 c0 -8 4 -12 9 -9 5 3 6 10 3 15 -9 13 -12 11 -12 -6z"/>
<path d="M3110 146 c0 -2 7 -7 16 -10 8 -3 12 -2 9 4 -6 10 -25 14 -25 6z"/>
<path d="M3166 118 c3 -5 10 -6 15 -3 13 9 11 12 -6 12 -8 0 -12 -4 -9 -9z"/>
<path d="M3246 118 c3 -5 10 -6 15 -3 13 9 11 12 -6 12 -8 0 -12 -4 -9 -9z"/>
</g>
</svg>
